<svg width="76" height="16" viewBox="0 0 76 16" fill="none" xmlns="http://www.w3.org/2000/svg">
<g clip-path="url(#clip0_272_1156)">
<mask id="mask0_272_1156" style="mask-type:luminance" maskUnits="userSpaceOnUse" x="0" y="0" width="76" height="16">
<path d="M76 0H0V16H76V0Z" fill="white"/>
</mask>
<g mask="url(#mask0_272_1156)">
<path fill-rule="evenodd" clip-rule="evenodd" d="M27.2533 13.9026H76V16H25.7022L27.2533 13.9026ZM0 13.9026H15.8431L14.5123 16H0V13.9026Z" fill="#E54D42"/>
<path fill-rule="evenodd" clip-rule="evenodd" d="M36.2425 11.9273L41.3301 0.0672727L41.2801 0H38.5203L38.4703 0.0490909L34.7959 9.2H34.7115L31.3376 0.0509091L31.2711 0H26.516L26.4495 0.0490909V1.89091L26.516 1.94036H28.014L32.2854 11.9273L32.3365 11.9782H36.2096L36.2425 11.9273ZM45.585 3.33673C42.6254 3.33673 40.3966 5.19309 40.3966 7.67382C40.3932 8.00062 40.4324 8.32648 40.5131 8.64327C40.7625 9.76385 41.4351 10.7461 42.3919 11.3869C43.2067 11.9785 44.57 12.3564 45.95 12.3564C47.5333 12.382 49.0751 11.8527 50.3058 10.8611V10.7956L49.408 9.51418H49.3415C48.4387 10.0821 47.3998 10.3997 46.3322 10.4342C44.8857 10.4342 43.8549 9.54691 43.7219 8.52836H50.6383L50.6883 8.49527C50.6883 8.47891 50.7048 7.95309 50.7048 7.67382C50.7059 5.11091 48.5962 3.33673 45.585 3.33673ZM45.585 5.04582C45.8408 5.03511 46.096 5.07685 46.3349 5.16844C46.5738 5.26004 46.7912 5.39953 46.9736 5.57825C47.156 5.75697 47.2996 5.97111 47.3953 6.20737C47.4911 6.44363 47.5371 6.69696 47.5303 6.95164H43.6573C43.6561 6.69992 43.7052 6.45049 43.8018 6.21787C43.8984 5.98524 44.0406 5.77406 44.22 5.59663C44.3994 5.4192 44.6125 5.27906 44.8468 5.18437C45.0812 5.08969 45.3321 5.04307 45.585 5.04582ZM63.2846 7.31236C63.2017 4.88109 61.5388 3.27091 59.1448 3.38509C58.0973 3.43418 56.867 3.97636 56.2849 4.81418H56.2685V3.81309L56.2184 3.764H51.7111L51.661 3.81309V5.45455L51.7111 5.504H53.2241V11.9273L53.2731 11.9782H56.4154L56.4654 11.9287V7.83818C56.4654 6.62255 57.1469 5.456 58.3289 5.37382C59.2424 5.308 60.025 5.94873 60.025 7.32873V11.9273L60.0747 11.9767H63.2338L63.2846 11.9273V7.30909V7.31236ZM75.1052 0.0181818H70.4001L70.3501 0.0676364V1.70909L70.4001 1.75818H71.9132V4.83055H71.8799C71.5656 4.38209 71.1443 4.01827 70.654 3.77171C70.1636 3.52514 69.6193 3.40355 69.0701 3.41782C68.486 3.41791 67.9077 3.53443 67.3695 3.76051C66.8314 3.98659 66.3441 4.31765 65.9366 4.73416C65.529 5.15067 65.2094 5.64419 64.9966 6.18561C64.7838 6.72703 64.6821 7.30538 64.6976 7.88655C64.6834 8.46745 64.7859 9.04533 64.9991 9.58628C65.2123 10.1272 65.5319 10.6203 65.9392 11.0367C66.3465 11.453 66.8333 11.7842 67.3709 12.0109C67.9085 12.2375 68.4862 12.3549 69.0701 12.3564C69.6468 12.3551 70.216 12.2261 70.7365 11.9789C71.257 11.7317 71.7157 11.3723 72.0794 10.9269H72.1127V11.9273L72.1635 11.9782H75.1063L75.1563 11.9287V0.0672727L75.1052 0.0181818ZM70.1674 10.3516C70.0849 10.3652 70.0013 10.3707 69.9178 10.368C68.8217 10.368 67.9561 9.28364 67.9561 7.88727C67.9561 6.47418 68.8206 5.40655 69.9511 5.40655C70.0236 5.40382 70.0961 5.40931 70.1674 5.42291C71.5474 5.58727 71.8481 6.83564 71.9132 7.54218V8.19927C71.8299 9.136 71.3311 10.1709 70.1674 10.3516ZM9.90777 0.0509091L9.85771 0H3.69038L3.6396 0.0509091V1.89091L3.69038 1.94036H5.13694L0.863037 11.9127L0.91346 11.9782H3.67358L3.72327 11.9287L4.62102 9.69455H10.0408L10.8556 11.9287L10.9221 11.9782H14.9121L14.9786 11.896L9.90777 0.0509091ZM5.40185 7.756L7.39721 2.77818H7.48015L9.3089 7.756H5.40185ZM26.2712 3.81309L26.2215 3.764H23.2772L23.2275 3.81309V4.81527H23.1943C22.6462 3.97891 21.3154 3.40218 20.1849 3.40218C19.6021 3.40405 19.0254 3.52191 18.489 3.74883C17.9525 3.97574 17.4671 4.30713 17.0612 4.7235C16.6553 5.13986 16.3372 5.6328 16.1256 6.17332C15.9139 6.71384 15.813 7.29102 15.8288 7.87091C15.8181 8.44022 15.9239 9.00574 16.1399 9.53303C16.3558 10.0603 16.6773 10.5383 17.0849 10.938C17.4924 11.3376 17.9775 11.6505 18.5104 11.8576C19.0434 12.0647 19.6131 12.1616 20.1849 12.1425C20.7323 12.1454 21.2724 12.0189 21.761 11.7732C22.2495 11.5276 22.6723 11.17 22.9947 10.7298H23.028V10.96C23.028 12.4549 22.5124 13.7309 20.653 13.7309L17.8395 13.9029L16.5066 16H20.7173C23.7182 16 26.2712 14.1153 26.2712 10.616V3.816V3.81309ZM21.2986 10.1382C21.2107 10.1518 21.1216 10.1573 21.0326 10.1545C19.9365 10.1545 19.0709 9.26727 19.0709 7.87091C19.0709 6.45818 19.9354 5.39018 21.0827 5.39018C21.1551 5.38807 21.2274 5.39356 21.2986 5.40655C22.9279 5.60364 23.0609 7.34509 23.0609 7.87091C23.0612 8.88945 22.5958 9.94109 21.2986 10.1382Z" fill="#2D3E4F"/>
</g>
</g>
<defs>
<clipPath id="clip0_272_1156">
<rect width="76" height="16" fill="white"/>
</clipPath>
</defs>
</svg>
