<svg width="27" height="17" viewBox="0 0 27 17" fill="none" xmlns="http://www.w3.org/2000/svg">
<path fill-rule="evenodd" clip-rule="evenodd" d="M0 14.1133H15.8431L14.5123 16.2107H0V14.1133Z" fill="#E54D42"/>
<path fill-rule="evenodd" clip-rule="evenodd" d="M9.90777 0.0509091L9.85771 0H3.69038L3.6396 0.0509091V1.89091L3.69038 1.94036H5.13694L0.863037 11.9127L0.91346 11.9782H3.67358L3.72327 11.9287L4.62102 9.69455H10.0408L10.8556 11.9287L10.9221 11.9782H14.9121L14.9786 11.896L9.90777 0.0509091ZM5.40185 7.756L7.39721 2.77818H7.48015L9.3089 7.756H5.40185ZM26.2712 3.81309L26.2215 3.764H23.2772L23.2275 3.81309V4.81527H23.1943C22.6462 3.97891 21.3154 3.40218 20.1849 3.40218C19.6021 3.40405 19.0254 3.52191 18.489 3.74883C17.9525 3.97574 17.4671 4.30713 17.0612 4.7235C16.6553 5.13986 16.3372 5.6328 16.1256 6.17332C15.9139 6.71384 15.813 7.29102 15.8288 7.87091C15.8181 8.44022 15.9239 9.00574 16.1399 9.53303C16.3558 10.0603 16.6773 10.5383 17.0849 10.938C17.4924 11.3376 17.9775 11.6505 18.5104 11.8576C19.0434 12.0647 19.6131 12.1616 20.1849 12.1425C20.7323 12.1454 21.2724 12.0189 21.761 11.7732C22.2495 11.5276 22.6723 11.17 22.9947 10.7298H23.028V10.96C23.028 12.4549 22.5124 13.7309 20.653 13.7309L17.8395 13.9029L16.5066 16H20.7173C23.7182 16 26.2712 14.1153 26.2712 10.616V3.816V3.81309ZM21.2986 10.1382C21.2107 10.1518 21.1216 10.1573 21.0326 10.1545C19.9365 10.1545 19.0709 9.26727 19.0709 7.87091C19.0709 6.45818 19.9354 5.39018 21.0827 5.39018C21.1551 5.38807 21.2274 5.39356 21.2986 5.40655C22.9279 5.60364 23.0609 7.34509 23.0609 7.87091C23.0612 8.88946 22.5958 9.94109 21.2986 10.1382Z" fill="#2D3E4F"/>
</svg>
